# xmcd
#
# Track frame offsets: 
#        150
#        18731
#        38213
#        54921
#        68641
#        83231
#        105400
#        127723
#        148628
#        171948
#        186613
#        204261
#
# Disc length: 3026 seconds
#
# Revision: 0
# Processed by: cddbd v1.5.2PL0 Copyright (c) Steve Scherf et al.
# Submitted via: ExactAudioCopy v0.99pb3
#
DISCID=9f0bd00c
DTITLE=Mitch Kashmar and The Pointiax - 100 Miles To Go
DYEAR=2010
DGENRE=Blues
TTITLE0=Night Creeper
TTITLE1=My Kinda Woman
TTITLE2=100 Miles To Go
TTITLE3=Lip Service
TTITLE4=Gonna Find Someone New
TTITLE5=Horn Of Plenty
TTITLE6=Long As I Have You
TTITLE7=Walkin' Downtown
TTITLE8=Let It All Fall Dead
TTITLE9=I'm Sorry About That
TTITLE10=When You Do Me Like That (I Wanna Do You Like This)
TTITLE11=The Petroleum Blues
EXTD=
EXTT0=
EXTT1=
EXTT2=
EXTT3=
EXTT4=
EXTT5=
EXTT6=
EXTT7=
EXTT8=
EXTT9=
EXTT10=
EXTT11=
PLAYORDER=
